<?xml version="1.0" encoding="UTF-8"?>
<svg width="132px" height="35px" viewBox="0 0 132 35" version="1.1" xmlns="http://www.w3.org/2000/svg" xmlns:xlink="http://www.w3.org/1999/xlink">
    <!-- Generator: Sketch 45.2 (43514) - http://www.bohemiancoding.com/sketch -->
    <title>Group</title>
    <desc>Created with Sketch.</desc>
    <defs></defs>
    <g id="Symbols" stroke="none" stroke-width="1" fill="none" fill-rule="evenodd">
        <g id="Header_mygov" transform="translate(-350.000000, -24.000000)">
            <g id="Group" transform="translate(350.000000, 24.000000)">
                <path d="M73.1500001,28.57 C64.8660001,28.57 58.2160001,23.022 58.2160001,14.776 L58.2160001,14.7 C58.2160001,6.758 64.4860001,0.83 72.8840001,0.83 C77.4440001,0.83 81.1300001,2.35 84.0180001,4.858 L79.0400001,10.862 C77.2920001,9.38 75.3540001,8.544 73.1500001,8.544 C69.6920001,8.544 67.1840001,11.204 67.1840001,14.814 L67.1840001,14.89 C67.1840001,18.652 69.8060001,21.236 73.5300001,21.236 C75.0500001,21.236 75.8860001,21.008 76.5700001,20.628 L76.5700001,17.968 L72.0100001,17.968 L72.0100001,12.268 L84.8920001,12.268 L84.8920001,24.58 C82.0040001,26.936 77.9760001,28.57 73.1500001,28.57 Z M96.4500001,28.494 C89.6480001,28.494 84.8220001,23.554 84.8220001,17.702 L84.8220001,17.626 C84.8220001,11.774 89.6860001,6.758 96.5260001,6.758 C103.328,6.758 108.154,11.698 108.154,17.55 L108.154,17.626 C108.154,23.478 103.29,28.494 96.4500001,28.494 Z M96.5260001,21.312 C98.4640001,21.312 99.8700001,19.678 99.8700001,17.702 L99.8700001,17.626 C99.8700001,15.574 98.3500001,13.94 96.4500001,13.94 C94.5120001,13.94 93.1060001,15.574 93.1060001,17.55 L93.1060001,17.626 C93.1060001,19.678 94.6260001,21.312 96.5260001,21.312 Z M115.418,28.152 L107.02,7.252 L116.064,7.252 L119.408,17.664 L122.79,7.252 L131.72,7.252 L123.322,28.152 L115.418,28.152 Z" id="myGov" fill="#D7EA6A"></path>
                <path d="M0.292,28 L0.292,7.252 L8.918,7.252 L8.918,10.026 C10.248,8.316 12.338,6.758 15.188,6.758 C18,6.758 20.166,7.974 21.306,10.178 C23.054,8.202 25.144,6.758 28.336,6.758 C32.782,6.758 35.518,9.646 35.518,14.32 L35.518,28 L26.892,28 L26.892,17.018 C26.892,15.27 25.866,14.282 24.612,14.282 C23.358,14.282 22.218,15.27 22.218,17.018 L22.218,28 L13.592,28 L13.592,17.018 C13.592,15.27 12.566,14.282 11.312,14.282 C10.058,14.282 8.918,15.27 8.918,17.018 L8.918,28 L0.292,28 Z" id="Path" fill="#FFFFFF"></path>
                <path d="M46.962,18.196 L50.268,7.252 L59.046,7.252 L51.864,26.556 C49.85,31.99 47.646,34.194 42.858,34.194 C39.856,34.194 37.158,33.32 34.84,32.028 L37.348,26.138 C38.906,27.012 40.35,27.506 41.148,27.506 C41.642,27.506 42.098,27.43 42.554,27.202 L34.422,7.252 L43.352,7.252 L46.962,18.196 Z" id="Path" fill="#FFFFFF"></path>
            </g>
        </g>
    </g>
</svg>